<?xml version="1.0" encoding="UTF-8" standalone="no"?>
<!-- Created with Inkscape (http://www.inkscape.org/) -->

<svg
   width="166.759mm"
   height="34.37751mm"
   viewBox="0 0 168.759 34.789811"
   version="1.1"
   id="svg5"
   inkscape:version="1.2.2 (b0a8486541, 2022-12-01)"
   sodipodi:docname="logo_wtext.svg"
   xml:space="preserve"
   xmlns:inkscape="http://www.inkscape.org/namespaces/inkscape"
   xmlns:sodipodi="http://sodipodi.sourceforge.net/DTD/sodipodi-0.dtd"
   xmlns="http://www.w3.org/2000/svg"
   xmlns:svg="http://www.w3.org/2000/svg"><sodipodi:namedview
     id="namedview7"
     pagecolor="#222222"
     bordercolor="#eeeeee"
     borderopacity="1"
     inkscape:pageshadow="0"
     inkscape:pageopacity="0"
     inkscape:pagecheckerboard="0"
     inkscape:document-units="mm"
     showgrid="false"
     fit-margin-top="0"
     fit-margin-left="0"
     fit-margin-right="0"
     fit-margin-bottom="0"
     inkscape:showpageshadow="0"
     inkscape:deskcolor="#222222"
     inkscape:zoom="1.4750001"
     inkscape:cx="271.86439"
     inkscape:cy="149.8305"
     inkscape:window-width="1920"
     inkscape:window-height="1011"
     inkscape:window-x="1920"
     inkscape:window-y="32"
     inkscape:window-maximized="1"
     inkscape:current-layer="layer1"
     showguides="false" /><defs
     id="defs2"><inkscape:path-effect
       effect="perspective-envelope"
       up_left_point="43.029907,133.07276"
       up_right_point="69.324042,133.07276"
       down_left_point="42.244807,138.99215"
       down_right_point="70.269945,138.99215"
       id="path-effect3843"
       is_visible="true"
       lpeversion="1"
       deform_type="perspective"
       horizontal_mirror="false"
       vertical_mirror="false"
       overflow_perspective="false" /><inkscape:path-effect
       effect="perspective-envelope"
       up_left_point="57.124412,125.95624"
       up_right_point="80.094183,125.96169"
       down_left_point="56.936332,131.69049"
       down_right_point="80.927959,131.69049"
       id="path-effect1122"
       is_visible="true"
       lpeversion="1"
       deform_type="perspective"
       horizontal_mirror="false"
       vertical_mirror="false"
       overflow_perspective="false" /><inkscape:path-effect
       effect="perspective-envelope"
       up_left_point="57.124412,125.95624"
       up_right_point="80.094183,125.96169"
       down_left_point="56.936332,131.69049"
       down_right_point="80.927959,131.69049"
       id="path-effect1102"
       is_visible="true"
       lpeversion="1"
       deform_type="perspective"
       horizontal_mirror="false"
       vertical_mirror="false"
       overflow_perspective="false" /><inkscape:path-effect
       effect="perspective-envelope"
       up_left_point="40.484535,107.36393"
       up_right_point="109.71966,107.36393"
       down_left_point="36.873209,189.22428"
       down_right_point="106.48785,189.22428"
       id="path-effect1082"
       is_visible="true"
       lpeversion="1"
       deform_type="perspective"
       horizontal_mirror="false"
       vertical_mirror="false"
       overflow_perspective="false" /><inkscape:path-effect
       effect="perspective-envelope"
       up_left_point="57.124412,125.95624"
       up_right_point="80.094183,125.96169"
       down_left_point="56.936332,131.69049"
       down_right_point="80.927959,131.69049"
       id="path-effect984"
       is_visible="true"
       lpeversion="1"
       deform_type="perspective"
       horizontal_mirror="false"
       vertical_mirror="false"
       overflow_perspective="false" /></defs><g
     inkscape:label="Layer 1"
     inkscape:groupmode="layer"
     id="layer1"
     transform="translate(-9.4015922,-104.90154)"
     style="display:inline"><g
       id="g4880"
       style="fill:#000000;fill-opacity:1"
       transform="matrix(0.74510078,0,0,0.74510078,23.140031,31.120722)"><path
         id="path2633"
         style="font-style:normal;font-weight:600;font-size:6.9167px;line-height:1.25;font-family:'Roboto Slab';-inkscape-font-specification:'Roboto Slab Semi-Bold';font-variant-ligatures:none;letter-spacing:-0.244967px;fill:#000000;fill-opacity:1;stroke-width:1.67373"
         d="m 14.548596,111.87578 -0.267092,2.53003 h 4.147608 v -2.53003 z m 10.888225,0 v 2.53003 h 4.171616 l -0.270112,-2.53003 z m -11.740555,3.47539 a 0.83637907,0.83637907 0 0 1 -0.270112,0.0523 H 9.4015922 v 2.53299 h 4.0215588 z m 16.497398,0 0.273131,2.58398 h 4.042566 v -2.53299 h -4.036566 a 0.83637907,0.83637907 0 0 1 -0.279114,-0.0523 z m -14.003432,20.97812 v 2.53299 h 11.512467 v -2.53299 H 16.193235 a 0.83637907,0.83637907 0 0 1 -0.003,0 z" /><path
         id="path2635"
         style="font-style:normal;font-weight:600;font-size:6.9167px;line-height:1.25;font-family:'Roboto Slab';-inkscape-font-specification:'Roboto Slab Semi-Bold';font-variant-ligatures:none;letter-spacing:-0.244967px;fill:#000000;fill-opacity:1;stroke-width:1.67373"
         d="m 35.411358,108.9887 v 2.51197 l 2.265884,0.42918 v -2.518 z m 12.370802,9.90685 c -0.714858,0 -1.315911,0.15449 -1.869724,0.453 a 0.83637907,0.83637907 0 0 1 -0.0122,0 c -0.499977,0.2596 -0.886572,0.65759 -1.236481,1.1344 v 2.0678 c 0.258845,-0.22302 0.542547,-0.41699 0.849328,-0.57612 0.679949,-0.36646 1.438022,-0.5494 2.274887,-0.5494 1.189909,0 2.092481,0.34033 2.707047,1.0204 0.03136,0.0348 0.06034,0.0709 0.09002,0.10802 v -0.0749 c 6e-6,-1.47397 -0.316108,-2.39227 -0.714277,-2.83307 -0.434526,-0.48087 -1.058193,-0.75028 -2.088811,-0.75028 z m -12.115703,17.43374 v 2.53299 h 10.786185 v -2.52096 l -10.783183,-0.0116 a 0.83637907,0.83637907 0 0 1 -0.003,0 z m 13.121093,0 v 2.53299 h 10.807191 v -2.53299 a 0.83637907,0.83637907 0 0 1 -0.003,0 H 48.793555 a 0.83637907,0.83637907 0 0 1 -0.0058,0 z" /><path
         id="path2637"
         style="font-style:normal;font-weight:600;font-size:6.9167px;line-height:1.25;font-family:'Roboto Slab';-inkscape-font-specification:'Roboto Slab Semi-Bold';font-variant-ligatures:none;letter-spacing:-0.244967px;fill:#000000;fill-opacity:1;stroke-width:1.67373"
         d="m 69.141449,118.48739 c -0.595826,0 -1.11369,0.0761 -1.554604,0.21605 a 0.83637907,0.83637907 0 0 1 -0.0122,0 c -0.337596,0.10105 -0.617848,0.26541 -0.894348,0.43208 l -0.387135,2.42491 a 0.83637907,0.83637907 0 0 1 -0.05401,0.18585 c 0.334983,-0.20037 0.697889,-0.35891 1.092423,-0.47739 0.5361,-0.17016 1.139824,-0.25495 1.8067,-0.25495 1.229145,0 2.157433,0.32755 2.785079,0.98137 0.018,0.0174 0.03368,0.0348 0.05111,0.0523 h 0.07201 v -0.82828 c 0,-0.90563 -0.233524,-1.51706 -0.714277,-2.0078 a 0.83637907,0.83637907 0 0 1 -0.0122,0 c -0.438765,-0.45706 -1.097987,-0.72624 -2.178846,-0.72624 z m -3.253265,3.66739 A 0.83637907,0.83637907 0 0 1 65.465042,122.275 H 61.58754 a 0.83637907,0.83637907 0 0 1 -0.02091,-0.003 l 0.018,2.42793 c 0.749356,-0.71916 1.680379,-1.29783 2.770078,-1.73172 v 0.0116 c 0.467455,-0.18875 0.960468,-0.34962 1.47957,-0.48029 z m 3.955538,4.90691 c -1.242886,0 -2.05663,0.27876 -2.562996,0.73832 -0.551664,0.49945 -0.759298,0.98149 -0.759298,1.62061 0,0.4983 0.09832,0.80151 0.303099,1.04142 0.702947,-0.58384 1.708552,-0.87637 3.019172,-0.87637 h 2.013776 c 0.06592,-0.0801 0.127245,-0.16028 0.186076,-0.24333 v -2.28088 z m -9.468677,6.18841 c 0.05111,1.82858 0.655842,3.28234 1.818705,4.35768 1.229139,1.11146 2.910575,1.66568 5.041956,1.66568 1.255297,0 2.358742,-0.26831 3.313286,-0.80435 0.967623,-0.5494 1.797937,-1.26078 2.49097,-2.1368 0.05227,0.43151 0.137467,0.86197 0.255129,1.29348 0.130729,0.41814 0.267324,0.83112 0.411178,1.23649 h 6.767629 v -2.53299 h -6.758621 a 0.83637907,0.83637907 0 0 1 -0.795311,-0.5552 c -0.147455,-0.41583 -0.286315,-0.82892 -0.420181,-1.25752 -0.501196,0.45125 -0.937214,0.97771 -1.530595,1.31455 a 0.83637907,0.83637907 0 0 1 -0.0122,0 c -1.091017,0.6127 -2.347092,0.91836 -3.721445,0.91836 -2.276745,0 -4.195665,-0.60899 -5.603174,-1.88173 a 0.83637907,0.83637907 0 0 1 -0.0122,-0.0116 c -0.507933,-0.46984 -0.923142,-1.00768 -1.245482,-1.60563 z" /><path
         id="path2639"
         style="font-style:normal;font-weight:600;font-size:6.9167px;line-height:1.25;font-family:'Roboto Slab';-inkscape-font-specification:'Roboto Slab Semi-Bold';font-variant-ligatures:none;letter-spacing:-0.244967px;fill:#000000;fill-opacity:1;stroke-width:1.67373"
         d="m 80.125871,108.9887 v 2.51197 l 2.247869,0.42918 v -2.518 z m 0.216101,27.34059 v 2.53299 h 11.06229 v -2.53299 H 80.344975 a 0.83637907,0.83637907 0 0 1 -0.003,0 z" /><path
         id="path2641"
         style="font-style:normal;font-weight:600;font-size:6.9167px;line-height:1.25;font-family:'Roboto Slab';-inkscape-font-specification:'Roboto Slab Semi-Bold';font-variant-ligatures:none;letter-spacing:-0.244967px;fill:#000000;fill-opacity:1;stroke-width:1.67373"
         d="m 91.121635,108.9887 v 2.51197 l 2.238868,0.42918 v -2.518 z m 0.216101,27.34059 v 2.53299 h 11.062294 v -2.53299 H 91.340739 a 0.83637907,0.83637907 0 0 1 -0.003,0 z" /><path
         id="path2839"
         style="font-style:normal;font-weight:600;font-size:6.9167px;line-height:1.25;font-family:'Roboto Slab';-inkscape-font-specification:'Roboto Slab Semi-Bold';font-variant-ligatures:none;letter-spacing:-0.244967px;fill:#000000;fill-opacity:1;stroke-width:1.67373"
         d="m 104.98534,110.46825 v 2.52399 h 5.53115 v -2.52399 a 0.83637907,0.83637907 0 0 1 -0.006,0 h -5.52214 a 0.83637907,0.83637907 0 0 1 -0.003,0 z" /><path
         id="path2643"
         style="font-style:normal;font-weight:600;font-size:6.9167px;line-height:1.25;font-family:'Roboto Slab';-inkscape-font-specification:'Roboto Slab Semi-Bold';font-variant-ligatures:none;letter-spacing:-0.244967px;fill:#000000;fill-opacity:1;stroke-width:1.67373"
         d="m 102.10422,118.37031 v 2.50599 l 2.23587,0.42627 v -2.50894 z m 0.23411,17.95898 v 2.53299 h 11.02327 v -2.53299 a 0.83637907,0.83637907 0 0 1 -0.003,0 z" /><path
         id="path2645"
         style="font-style:normal;font-weight:600;font-size:6.9167px;line-height:1.25;font-family:'Roboto Slab';-inkscape-font-specification:'Roboto Slab Semi-Bold';font-variant-ligatures:none;letter-spacing:-0.244967px;fill:#000000;fill-opacity:1;stroke-width:1.67373"
         d="m 125.89056,118.37031 v 2.50599 l 1.74968,0.39608 v -2.49995 z m -12.68892,0.0116 v 2.49698 l 1.51859,0.38098 v -2.49698 z m 2.46396,14.09948 c 0.23079,2.0103 0.82666,3.56343 1.79169,4.65781 1.28145,1.42525 3.05292,2.13685 5.31506,2.13685 v 0.003 c 1.29452,0 2.44449,-0.27586 3.45134,-0.82532 0.9749,-0.52501 1.78762,-1.27187 2.43995,-2.23884 a 0.83637907,0.83637907 0 0 1 -0.39015,-0.60927 l -0.14705,-1.18847 c -0.49655,0.48087 -0.89822,1.07702 -1.50659,1.40457 -1.13685,0.6177 -2.43864,0.93038 -3.84749,0.93038 -2.43777,0 -4.48527,-0.80871 -5.9303,-2.41597 a 0.83637907,0.83637907 0 0 1 -0.0122,-0.0116 c -0.47041,-0.53314 -0.85693,-1.14904 -1.16445,-1.8427 z m 13.11209,3.78447 0.3301,2.59902 h 7.23881 v -2.52097 h -7.24481 a 0.83637907,0.83637907 0 0 1 -0.32413,-0.0778 z" /><path
         id="path2647"
         style="font-style:normal;font-weight:600;font-size:6.9167px;line-height:1.25;font-family:'Roboto Slab';-inkscape-font-specification:'Roboto Slab Semi-Bold';font-variant-ligatures:none;letter-spacing:-0.244967px;fill:#000000;fill-opacity:1;stroke-width:1.67373"
         d="m 136.02958,118.37031 v 2.50599 l 2.24787,0.42918 v -2.51197 z m 12.19673,0.52501 c -0.77434,0 -1.36954,0.16494 -1.84872,0.44428 a 0.83637907,0.83637907 0 0 1 -0.0122,0 c -0.45026,0.25321 -0.7935,0.63477 -1.10142,1.11042 v 2.02279 c 0.21238,-0.18991 0.44068,-0.35775 0.69027,-0.4983 0.62764,-0.36646 1.38571,-0.54939 2.27488,-0.54939 1.08531,0 1.9107,0.34845 2.47296,1.04142 0.002,0.002 0.004,0.004 0.006,0.006 -0.0128,-1.46677 -0.30403,-2.40353 -0.65726,-2.8391 -0.39642,-0.48842 -0.91741,-0.73827 -1.82471,-0.73827 z m 12.44283,0 c -0.80972,0 -1.38424,0.22069 -1.88474,0.68123 -0.52285,0.48087 -0.87142,1.09474 -1.08642,1.88173 v 1.43459 c 0.15506,-0.2021 0.32726,-0.39027 0.51618,-0.5645 0.6538,-0.60149 1.47126,-0.90331 2.45195,-0.90331 1.08531,0 1.90276,0.33568 2.45195,1.00239 0.004,0.004 0.008,0.006 0.0122,0.0116 -0.0174,-1.51498 -0.32424,-2.45709 -0.64525,-2.83005 a 0.83637907,0.83637907 0 0 1 -0.0122,-0.0116 c -0.37732,-0.45822 -0.88969,-0.70225 -1.8037,-0.70225 z m -24.42348,17.43374 v 2.53299 h 10.80719 v -2.52097 z m 12.80897,0 v 2.53299 h 10.297 v -2.53299 z m 12.27776,0 v 2.53299 h 10.82821 v -2.53299 h -10.8222 a 0.83637907,0.83637907 0 0 1 -0.006,0 z" /></g><g
       id="g4858"
       style="fill:#ffffff;fill-opacity:1"
       transform="matrix(0.74510078,0,0,0.74510078,23.140031,31.120722)"><path
         style="color:#000000;-inkscape-font-specification:'Roboto Slab Semi-Bold';fill:#ffffff;fill-opacity:1;stroke-width:1.67259;stroke-linejoin:round;-inkscape-stroke:none;paint-order:stroke fill markers"
         d="m 16.189234,135.49939 v -3.21672 l 3.079396,-0.58843 v -20.65353 h -5.472305 l -0.372674,3.53056 H 9.4027886 v -7.62986 H 34.508716 v 7.62986 H 30.46823 l -0.372674,-3.53056 h -5.491918 v 20.65353 l 3.099009,0.58843 v 3.21672 z"
         id="path2662" /><path
         style="color:#000000;-inkscape-font-specification:'Roboto Slab Semi-Bold';fill:#ffffff;fill-opacity:1;stroke-width:1.67259;stroke-linejoin:round;-inkscape-stroke:none;paint-order:stroke fill markers"
         d="m 35.666387,135.49939 v -3.21672 l 2.844026,-0.58843 v -22.96798 l -3.099009,-0.58843 v -3.23629 h 8.414405 v 12.10184 q 1.019932,-1.47107 2.510594,-2.29482 1.51028,-0.82381 3.412834,-0.82381 3.255925,0 5.119256,2.11832 1.882948,2.0987 1.882948,6.51184 v 9.17933 l 2.844026,0.58843 v 3.21672 H 48.788154 v -3.21672 l 2.628273,-0.58843 v -9.21853 q 0,-2.37334 -0.921859,-3.39327 -0.921853,-1.01993 -2.706728,-1.01993 -1.255297,0 -2.275223,0.5494 -1.019932,0.52965 -1.686808,1.5299 v 11.55261 l 2.628279,0.58842 v 3.21672 z"
         id="path2675" /><path
         style="color:#000000;-inkscape-font-specification:'Roboto Slab Semi-Bold';fill:#ffffff;fill-opacity:1;stroke-width:1.67259;stroke-linejoin:round;-inkscape-stroke:none;paint-order:stroke fill markers"
         d="m 67.234463,135.91126 q -3.197082,0 -5.040794,-1.66719 -1.824106,-1.68682 -1.824106,-4.60926 0,-2.00067 1.078769,-3.51093 1.098387,-1.5299 3.2167,-2.37328 2.137926,-0.86301 5.19771,-0.86301 h 3.020554 v -1.66719 q 0,-1.60836 -0.961083,-2.58903 -0.941471,-0.98074 -2.785189,-0.98074 -1.000314,0 -1.804488,0.25496 -0.784561,0.23521 -1.412207,0.68646 l -0.451135,2.84404 h -3.883576 l -0.03949,-5.37424 q 1.608347,-0.98067 3.53052,-1.5691 1.941786,-0.60806 4.315082,-0.60806 4.099323,0 6.453007,1.9222 2.37329,1.90252 2.37329,5.47228 v 9.04204 q 0,0.4315 0,0.84344 0.01975,0.41176 0.07846,0.80418 l 2.17715,0.31361 v 3.21672 H 73.70681 q -0.215752,-0.60806 -0.411875,-1.23569 -0.176493,-0.64726 -0.254954,-1.29452 -1.039544,1.31415 -2.490982,2.1379 -1.431819,0.80418 -3.314767,0.80418 z m 1.31414,-4.02084 q 1.353364,0 2.530206,-0.62768 1.196454,-0.62763 1.804487,-1.58873 v -3.45204 H 69.84313 q -2.059471,0 -3.118627,0.9611 -1.039545,0.94147 -1.039545,2.23598 0,1.17686 0.745331,1.82412 0.745331,0.64725 2.118314,0.64725 z"
         id="path2712" /><path
         style="color:#000000;-inkscape-font-specification:'Roboto Slab Semi-Bold';fill:#ffffff;fill-opacity:1;stroke-width:1.67259;stroke-linejoin:round;-inkscape-stroke:none;paint-order:stroke fill markers"
         d="m 80.341943,135.49939 v -3.21672 l 2.863644,-0.58843 v -22.96798 l -3.079402,-0.58843 v -3.23629 h 8.41441 v 26.7927 l 2.863644,0.58843 v 3.21672 z"
         id="path2749" /><path
         style="color:#000000;-inkscape-font-specification:'Roboto Slab Semi-Bold';fill:#ffffff;fill-opacity:1;stroke-width:1.67259;stroke-linejoin:round;-inkscape-stroke:none;paint-order:stroke fill markers"
         d="m 104.98615,109.62853 v -4.72699 h 5.53115 v 4.72699 z"
         id="path2833" /><path
         style="color:#000000;-inkscape-font-specification:'Roboto Slab Semi-Bold';fill:#ffffff;fill-opacity:1;stroke-width:1.67259;stroke-linejoin:round;-inkscape-stroke:none;paint-order:stroke fill markers"
         d="m 102.33826,135.49939 v -3.21672 l 2.84403,-0.58843 v -13.59247 l -3.0794,-0.58843 v -3.23629 h 8.41441 v 17.41719 l 2.84403,0.58843 v 3.21672 z"
         id="path2876" /><path
         style="color:#000000;-inkscape-font-specification:'Roboto Slab Semi-Bold';fill:#ffffff;fill-opacity:1;stroke-width:1.67259;stroke-linejoin:round;-inkscape-stroke:none;paint-order:stroke fill markers"
         d="m 122.77239,135.91126 q -3.39322,0 -5.31539,-2.13789 -1.90256,-2.15759 -1.90256,-6.68839 v -8.98321 l -2.35368,-0.58843 v -3.23629 h 2.35368 5.33501 v 12.84713 q 0,2.51063 0.82379,3.56976 0.8434,1.03956 2.56943,1.03956 1.43182,0 2.49098,-0.56856 1.05916,-0.56857 1.70642,-1.62799 V 118.102 l -2.58905,-0.58842 v -3.23629 h 2.58905 5.33501 v 17.41719 l 2.5302,0.58842 v 3.21672 h -7.23756 l -0.35305,-2.78521 q -1.00031,1.54953 -2.53021,2.37333 -1.51028,0.82376 -3.45206,0.82376 z"
         id="path2915" /><path
         style="color:#000000;-inkscape-font-specification:'Roboto Slab Semi-Bold';fill:#ffffff;fill-opacity:1;stroke-width:1.67259;stroke-linejoin:round;-inkscape-stroke:none;paint-order:stroke fill markers"
         d="m 136.24627,135.49939 v -3.21672 l 2.86364,-0.58843 v -13.59247 l -3.07939,-0.58843 v -3.23629 h 8.00251 l 0.23538,2.78516 q 1.03954,-1.51027 2.58905,-2.33408 1.5495,-0.84338 3.58936,-0.84338 2.05947,0 3.53052,0.92184 1.47105,0.9219 2.21638,2.76558 0.98071,-1.72602 2.56944,-2.70675 1.58873,-0.98067 3.70704,-0.98067 3.17747,0 5.00157,2.15753 1.82411,2.15758 1.82411,6.55109 v 9.10087 l 2.86364,0.58843 v 3.21672 h -10.82693 v -3.21672 l 2.62828,-0.58843 v -9.1205 q 0,-2.5302 -0.8434,-3.51087 -0.82379,-1.00036 -2.45175,-1.00036 -1.47105,0 -2.45176,0.90227 -0.98069,0.90227 -1.35336,2.31445 v 10.41501 l 2.49098,0.58843 v 3.21672 h -10.29735 v -3.21672 l 2.49097,-0.58843 v -9.1205 q 0,-2.43211 -0.8434,-3.47167 -0.8434,-1.03956 -2.47136,-1.03956 -1.33376,0 -2.27523,0.5494 -0.94147,0.52965 -1.52989,1.5299 v 11.55261 l 2.62828,0.58842 v 3.21672 z"
         id="path3680" /><path
         style="color:#000000;-inkscape-font-specification:'Roboto Slab Semi-Bold';fill:#ffffff;fill-opacity:1;stroke-width:1.67259;stroke-linejoin:round;-inkscape-stroke:none;paint-order:stroke fill markers"
         d="m 91.336557,135.49939 v -3.21672 l 2.863644,-0.58843 v -22.96798 l -3.079396,-0.58843 v -3.23629 h 8.414404 v 26.7927 l 2.863641,0.58843 v 3.21672 z"
         id="path2798" /></g></g></svg>
