<?xml version="1.0" encoding="UTF-8" standalone="no"?>
<!-- Created with Inkscape (http://www.inkscape.org/) -->

<svg
   width="69.614639mm"
   height="81.860352mm"
   viewBox="0 0 69.61464 81.860352"
   version="1.1"
   id="svg5"
   inkscape:version="1.1.2 (0a00cf5, 2022-02-04)"
   sodipodi:docname="drawing.svg"
   xmlns:inkscape="http://www.inkscape.org/namespaces/inkscape"
   xmlns:sodipodi="http://sodipodi.sourceforge.net/DTD/sodipodi-0.dtd"
   xmlns="http://www.w3.org/2000/svg"
   xmlns:svg="http://www.w3.org/2000/svg">
  <sodipodi:namedview
     id="namedview7"
     pagecolor="#222222"
     bordercolor="#eeeeee"
     borderopacity="1"
     inkscape:pageshadow="0"
     inkscape:pageopacity="0"
     inkscape:pagecheckerboard="0"
     inkscape:document-units="mm"
     showgrid="false"
     fit-margin-top="0"
     fit-margin-left="0"
     fit-margin-right="0"
     fit-margin-bottom="0"
     inkscape:zoom="1.6108777"
     inkscape:cx="130.6741"
     inkscape:cy="138.12346"
     inkscape:window-width="1920"
     inkscape:window-height="1052"
     inkscape:window-x="1920"
     inkscape:window-y="0"
     inkscape:window-maximized="1"
     inkscape:current-layer="layer1" />
  <defs
     id="defs2" />
  <g
     inkscape:label="Layer 1"
     inkscape:groupmode="layer"
     id="layer1"
     transform="translate(-125.13985,-183.70827)"
     style="display:inline">
    <path
       style="fill:#ff0457;fill-opacity:1;stroke-width:0.365449"
       d="m 140.01999,256.34112 c 0.0788,-0.25125 0.57268,-2.35881 1.09719,-4.68348 l 0.95368,-4.22667 4.0201,-0.67062 c 2.21108,-0.36883 4.1279,-0.84494 4.25959,-1.05804 0.19891,-0.32175 3.33285,-45.74784 3.37629,-48.9378 l 0.0142,-1.01342 -6.45634,0.0998 -6.45637,0.0998 -1.3398,4.01994 -1.3398,4.01994 -6.50445,0.10005 -6.50443,0.10005 0.20812,-1.37907 c 0.11444,-0.75846 0.82366,-5.36701 1.57607,-10.24119 l 1.36799,-8.86214 h 31.5382 31.53819 l 0.18853,0.82225 c 0.10359,0.45226 0.76408,4.60468 1.46767,9.22761 0.70356,4.62292 1.375,8.85756 1.49208,9.41032 l 0.21284,1.00497 h -6.56816 -6.56816 l -1.40941,-4.11131 -1.40939,-4.1113 -5.93855,-0.10052 c -5.47911,-0.0927 -5.94593,0.54816 -5.94593,0.54816 -0.0285,2.50784 3.04956,48.31385 3.28698,48.91371 0.25007,0.6318 0.94119,0.86675 4.18521,1.42278 2.13713,0.36631 3.98176,0.8215 4.0992,1.01149 0.11751,0.18995 0.66628,2.30433 1.21967,4.69851 l 1.0062,4.35303 h -20.40509 c -16.15695,0 -20.3752,-0.0951 -20.26158,-0.45682 z"
       id="path954"
       sodipodi:nodetypes="cscsccccccccccsccccsscccccccsscscscc" />
    <g
       id="g987"
       style="fill:#521057;fill-opacity:1"
       transform="translate(-64.122378,0.39419404)">
      <path
         style="fill:#521057;fill-opacity:1;stroke-width:0.365449"
         d="m 232.6827,203.68777 c -0.0774,-0.25125 -0.22864,-1.89577 -0.33617,-3.65449 l -0.19537,-3.19767 h 4.84044 4.84045 l 1.03848,3.19767 c 0.57116,1.75872 1.11599,3.40324 1.21077,3.65449 0.13332,0.35332 -1.12246,0.45682 -5.54275,0.45682 -4.25331,0 -5.75103,-0.1168 -5.8558,-0.45682 z"
         id="path962" />
      <path
         style="fill:#521057;fill-opacity:1;stroke-width:0.365449"
         d="m 203.97595,203.87134 c 0,-0.1503 0.50691,-1.79477 1.12647,-3.65448 l 1.12649,-3.3813 h 5.04408 5.04405 l -0.15809,2.46676 c -0.0871,1.35675 -0.23995,3.00126 -0.33995,3.65449 l -0.18169,1.18773 h -5.83062 c -3.20685,0 -5.83062,-0.12294 -5.83062,-0.2732 z"
         id="path960" />
      <path
         style="fill:#521057;fill-opacity:1;stroke-width:0.365449"
         d="m 245.09524,209.52899 c 0.1286,-0.8575 0.35085,-2.13201 0.49389,-2.83225 l 0.26007,-1.27314 6.51382,-0.10004 6.51385,-0.10005 -0.23525,0.93711 c -0.12931,0.51541 -0.57112,1.83489 -0.98167,2.9322 l -0.74645,1.99508 h -6.02605 -6.02604 z"
         id="path958" />
      <path
         style="fill:#521057;fill-opacity:1;stroke-width:0.365449"
         d="m 190.49128,209.09298 c -0.41054,-1.0973 -0.85228,-2.41679 -0.98166,-2.93219 l -0.23525,-0.93712 6.51382,0.10005 6.51382,0.10005 0.26007,1.27314 c 0.14299,0.70023 0.36529,1.97474 0.49389,2.83224 l 0.23383,1.55908 h -6.02604 -6.02605 z"
         id="path956" />
      <path
         style="fill:#521057;fill-opacity:1;stroke-width:0.365449"
         d="m 204.90756,264.7177 c -0.0779,-0.25122 -0.24513,-1.36129 -0.37149,-2.46676 -0.12647,-1.10549 -0.32508,-2.62668 -0.44164,-3.3804 l -0.2119,-1.37045 h 20.51185 c 11.28154,0 20.51186,0.0703 20.51186,0.1562 0,0.42331 -0.77071,5.97928 -0.92883,6.69589 l -0.18145,0.82225 h -19.37329 c -15.1794,0 -19.40402,-0.0989 -19.51511,-0.45682 z"
         id="path932" />
    </g>
  </g>
</svg>
